<mxfile host="Electron" agent="Mozilla/5.0 (Windows NT 10.0; Win64; x64) AppleWebKit/537.36 (KHTML, like Gecko) draw.io/26.1.1 Chrome/132.0.6834.210 Electron/34.3.3 Safari/537.36" version="26.1.1">
  <diagram id="C5RBs43oDa-KdzZeNtuy" name="Page-1">
    <mxGraphModel dx="1518" dy="731" grid="1" gridSize="10" guides="1" tooltips="1" connect="1" arrows="1" fold="1" page="1" pageScale="1" pageWidth="827" pageHeight="1169" math="0" shadow="0">
      <root>
        <mxCell id="WIyWlLk6GJQsqaUBKTNV-0" />
        <mxCell id="WIyWlLk6GJQsqaUBKTNV-1" parent="WIyWlLk6GJQsqaUBKTNV-0" />
        <mxCell id="LwUNckqSy1s6xYeCsNJz-4" value="House" style="rounded=0;whiteSpace=wrap;html=1;" parent="WIyWlLk6GJQsqaUBKTNV-1" vertex="1">
          <mxGeometry x="354" y="415" width="120" height="60" as="geometry" />
        </mxCell>
        <mxCell id="LwUNckqSy1s6xYeCsNJz-5" value="Floor" style="rounded=0;whiteSpace=wrap;html=1;" parent="WIyWlLk6GJQsqaUBKTNV-1" vertex="1">
          <mxGeometry x="354" y="555" width="120" height="60" as="geometry" />
        </mxCell>
        <mxCell id="LwUNckqSy1s6xYeCsNJz-6" value="Room" style="rounded=0;whiteSpace=wrap;html=1;" parent="WIyWlLk6GJQsqaUBKTNV-1" vertex="1">
          <mxGeometry x="354" y="695" width="120" height="60" as="geometry" />
        </mxCell>
        <mxCell id="LwUNckqSy1s6xYeCsNJz-7" value="Resident" style="rounded=0;whiteSpace=wrap;html=1;" parent="WIyWlLk6GJQsqaUBKTNV-1" vertex="1">
          <mxGeometry x="354" y="275" width="120" height="60" as="geometry" />
        </mxCell>
        <mxCell id="LwUNckqSy1s6xYeCsNJz-8" value="" style="endArrow=none;html=1;rounded=0;entryX=0.5;entryY=1;entryDx=0;entryDy=0;exitX=0.5;exitY=0;exitDx=0;exitDy=0;" parent="WIyWlLk6GJQsqaUBKTNV-1" source="LwUNckqSy1s6xYeCsNJz-10" target="LwUNckqSy1s6xYeCsNJz-4" edge="1">
          <mxGeometry width="50" height="50" relative="1" as="geometry">
            <mxPoint x="274" y="585" as="sourcePoint" />
            <mxPoint x="324" y="535" as="targetPoint" />
          </mxGeometry>
        </mxCell>
        <mxCell id="LwUNckqSy1s6xYeCsNJz-9" value="" style="endArrow=none;html=1;rounded=0;entryX=0.5;entryY=1;entryDx=0;entryDy=0;exitX=0.5;exitY=0;exitDx=0;exitDy=0;" parent="WIyWlLk6GJQsqaUBKTNV-1" source="LwUNckqSy1s6xYeCsNJz-5" target="LwUNckqSy1s6xYeCsNJz-10" edge="1">
          <mxGeometry width="50" height="50" relative="1" as="geometry">
            <mxPoint x="414" y="555" as="sourcePoint" />
            <mxPoint x="414" y="475" as="targetPoint" />
          </mxGeometry>
        </mxCell>
        <mxCell id="LwUNckqSy1s6xYeCsNJz-10" value="1&lt;div&gt;&lt;br&gt;&lt;/div&gt;&lt;div&gt;n&lt;/div&gt;" style="text;html=1;align=center;verticalAlign=middle;whiteSpace=wrap;rounded=0;" parent="WIyWlLk6GJQsqaUBKTNV-1" vertex="1">
          <mxGeometry x="384" y="495" width="60" height="45" as="geometry" />
        </mxCell>
        <mxCell id="LwUNckqSy1s6xYeCsNJz-13" value="" style="endArrow=none;html=1;rounded=0;entryX=0.5;entryY=1;entryDx=0;entryDy=0;exitX=0.5;exitY=0;exitDx=0;exitDy=0;" parent="WIyWlLk6GJQsqaUBKTNV-1" source="LwUNckqSy1s6xYeCsNJz-15" target="LwUNckqSy1s6xYeCsNJz-5" edge="1">
          <mxGeometry width="50" height="50" relative="1" as="geometry">
            <mxPoint x="274" y="725" as="sourcePoint" />
            <mxPoint x="414" y="615" as="targetPoint" />
          </mxGeometry>
        </mxCell>
        <mxCell id="LwUNckqSy1s6xYeCsNJz-14" value="" style="endArrow=none;html=1;rounded=0;entryX=0.5;entryY=1;entryDx=0;entryDy=0;exitX=0.5;exitY=0;exitDx=0;exitDy=0;" parent="WIyWlLk6GJQsqaUBKTNV-1" source="LwUNckqSy1s6xYeCsNJz-6" target="LwUNckqSy1s6xYeCsNJz-15" edge="1">
          <mxGeometry width="50" height="50" relative="1" as="geometry">
            <mxPoint x="414" y="695" as="sourcePoint" />
            <mxPoint x="414" y="615" as="targetPoint" />
          </mxGeometry>
        </mxCell>
        <mxCell id="LwUNckqSy1s6xYeCsNJz-15" value="1&lt;div&gt;&lt;br&gt;&lt;/div&gt;&lt;div&gt;n&lt;/div&gt;" style="text;html=1;align=center;verticalAlign=middle;whiteSpace=wrap;rounded=0;" parent="WIyWlLk6GJQsqaUBKTNV-1" vertex="1">
          <mxGeometry x="384" y="635" width="60" height="45" as="geometry" />
        </mxCell>
        <mxCell id="LwUNckqSy1s6xYeCsNJz-17" value="" style="endArrow=none;html=1;rounded=0;entryX=0.5;entryY=0;entryDx=0;entryDy=0;exitX=0.5;exitY=1;exitDx=0;exitDy=0;" parent="WIyWlLk6GJQsqaUBKTNV-1" source="a-HbV8aHh69XMxvkLRT2-0" target="LwUNckqSy1s6xYeCsNJz-4" edge="1">
          <mxGeometry width="50" height="50" relative="1" as="geometry">
            <mxPoint x="444" y="375" as="sourcePoint" />
            <mxPoint x="434" y="335" as="targetPoint" />
          </mxGeometry>
        </mxCell>
        <mxCell id="LwUNckqSy1s6xYeCsNJz-22" value="Window" style="rounded=0;whiteSpace=wrap;html=1;" parent="WIyWlLk6GJQsqaUBKTNV-1" vertex="1">
          <mxGeometry x="354" y="835" width="120" height="60" as="geometry" />
        </mxCell>
        <mxCell id="LwUNckqSy1s6xYeCsNJz-23" value="" style="endArrow=none;html=1;rounded=0;exitX=0.5;exitY=0;exitDx=0;exitDy=0;entryX=0.5;entryY=1;entryDx=0;entryDy=0;" parent="WIyWlLk6GJQsqaUBKTNV-1" source="LwUNckqSy1s6xYeCsNJz-24" target="LwUNckqSy1s6xYeCsNJz-6" edge="1">
          <mxGeometry width="50" height="50" relative="1" as="geometry">
            <mxPoint x="364" y="805" as="sourcePoint" />
            <mxPoint x="414" y="755" as="targetPoint" />
          </mxGeometry>
        </mxCell>
        <mxCell id="LwUNckqSy1s6xYeCsNJz-25" value="" style="endArrow=none;html=1;rounded=0;exitX=0.5;exitY=0;exitDx=0;exitDy=0;entryX=0.5;entryY=1;entryDx=0;entryDy=0;" parent="WIyWlLk6GJQsqaUBKTNV-1" source="LwUNckqSy1s6xYeCsNJz-22" target="LwUNckqSy1s6xYeCsNJz-24" edge="1">
          <mxGeometry width="50" height="50" relative="1" as="geometry">
            <mxPoint x="414" y="835" as="sourcePoint" />
            <mxPoint x="414" y="755" as="targetPoint" />
          </mxGeometry>
        </mxCell>
        <mxCell id="LwUNckqSy1s6xYeCsNJz-24" value="1&lt;div&gt;&lt;br&gt;&lt;/div&gt;&lt;div&gt;n&lt;/div&gt;" style="text;html=1;align=center;verticalAlign=middle;whiteSpace=wrap;rounded=0;" parent="WIyWlLk6GJQsqaUBKTNV-1" vertex="1">
          <mxGeometry x="384" y="775" width="60" height="45" as="geometry" />
        </mxCell>
        <mxCell id="a-HbV8aHh69XMxvkLRT2-1" value="" style="endArrow=none;html=1;rounded=0;entryX=0.5;entryY=0;entryDx=0;entryDy=0;exitX=0.5;exitY=1;exitDx=0;exitDy=0;" edge="1" parent="WIyWlLk6GJQsqaUBKTNV-1" source="LwUNckqSy1s6xYeCsNJz-7" target="a-HbV8aHh69XMxvkLRT2-0">
          <mxGeometry width="50" height="50" relative="1" as="geometry">
            <mxPoint x="414" y="335" as="sourcePoint" />
            <mxPoint x="414" y="415" as="targetPoint" />
          </mxGeometry>
        </mxCell>
        <mxCell id="a-HbV8aHh69XMxvkLRT2-0" value="1&lt;div&gt;&lt;br&gt;&lt;/div&gt;&lt;div&gt;n&lt;/div&gt;" style="text;html=1;align=center;verticalAlign=middle;whiteSpace=wrap;rounded=0;" vertex="1" parent="WIyWlLk6GJQsqaUBKTNV-1">
          <mxGeometry x="384" y="355" width="60" height="45" as="geometry" />
        </mxCell>
      </root>
    </mxGraphModel>
  </diagram>
</mxfile>
